<svg width="14" height="14" viewBox="0 0 14 14" fill="none" xmlns="http://www.w3.org/2000/svg">
<g clip-path="url(#clip0_528_21477)">
<path d="M4.0002 1.42649C4.73704 1.96396 5.29435 2.71934 5.76889 3.41226L6.14064 3.95956C6.37736 4.30552 6.33827 4.77483 6.03774 5.07538L5.24649 5.86657L5.33025 6.0436C5.53426 6.4572 5.8864 7.0533 6.41679 7.58367C6.82477 7.99166 7.27165 8.29417 7.6444 8.50493L7.85826 8.62048L8.04891 8.71467C8.07845 8.72862 8.10679 8.74171 8.13383 8.75396L8.92471 7.96313C9.22548 7.66231 9.69681 7.62264 10.0435 7.86292L10.6351 8.27297C11.3068 8.74559 12.0084 9.28425 12.554 9.98304C12.7533 10.2382 12.7829 10.5719 12.6641 10.8492C12.1759 11.9882 10.9407 12.9582 9.65569 12.9109L9.48038 12.9012L9.3445 12.8894L9.19412 12.8726L9.02987 12.8498L8.85237 12.8203L8.66223 12.7832L8.46008 12.7377L8.24654 12.6831L8.02223 12.6185L7.78776 12.5431C6.71074 12.1782 5.3441 11.4607 3.94191 10.0585C2.5397 8.65631 1.82225 7.28968 1.45737 6.21267L1.38195 5.97821L1.31733 5.7539L1.2627 5.54036L1.21725 5.33821C1.20353 5.2728 1.19122 5.20939 1.18016 5.14808L1.15062 4.97058L1.12784 4.80634L1.11099 4.65596L1.09927 4.52008L1.08952 4.34478C1.04239 3.06409 2.02344 1.81973 3.15721 1.33383C3.42325 1.21982 3.74547 1.24068 4.0002 1.42649ZM3.45852 2.48134C2.83353 2.80829 2.22791 3.55496 2.2554 4.30188L2.26749 4.49345L2.27951 4.61261L2.2967 4.7465L2.31991 4.89447L2.35004 5.05589L2.38794 5.2301L2.4345 5.41646L2.4906 5.61434L2.5571 5.82309C2.5811 5.89442 2.60698 5.96745 2.63489 6.04207L2.72483 6.27063L2.8278 6.50814C3.19375 7.314 3.79149 8.25819 4.76687 9.23357C5.74226 10.209 6.68646 10.8067 7.49233 11.1726L7.72983 11.2756L7.95839 11.3656C8.03302 11.3935 8.10604 11.4193 8.17737 11.4433L8.38612 11.5098L8.584 11.5659L8.77036 11.6125L8.94457 11.6504L9.10598 11.6805L9.25395 11.7038L9.38784 11.7209L9.507 11.733L9.69856 11.7451C10.4362 11.7722 11.1886 11.1701 11.5138 10.5531C11.0986 10.0659 10.583 9.66617 10.0141 9.26349L9.57817 8.95952L9.46687 9.07561L9.23049 9.33409L9.10486 9.46624C8.76289 9.81438 8.36423 10.1103 7.88597 9.91689L7.75392 9.86159L7.59299 9.78941C7.56397 9.77594 7.53391 9.76175 7.50288 9.74681L7.30572 9.64818L7.0891 9.53115C6.63892 9.2783 6.09463 8.91142 5.59183 8.40862C5.08903 7.90582 4.72215 7.36154 4.46929 6.91136L4.35226 6.69475L4.25363 6.49758L4.13884 6.24655L4.08354 6.11449C3.90205 5.66574 4.15149 5.2868 4.47075 4.95905L4.60132 4.83064L4.92662 4.53176L5.04281 4.42037L4.76714 4.01646C4.35723 3.42201 3.9558 2.88462 3.45852 2.48134ZM8.74528 3.5234L8.81295 3.53134C9.23756 3.60621 9.62757 3.81358 9.92711 4.12373C10.2266 4.43388 10.4202 4.83088 10.4802 5.25785C10.5251 5.57688 10.3028 5.87182 9.98376 5.91668C9.68752 5.95834 9.412 5.76964 9.33829 5.48703L9.32494 5.42021C9.29921 5.23723 9.21621 5.06709 9.08787 4.93417C8.98088 4.8234 8.84699 4.74322 8.70001 4.701L8.61036 4.68028C8.29314 4.62434 8.08127 4.32179 8.13721 4.00452C8.18916 3.70991 8.45376 3.5062 8.74528 3.5234ZM8.75012 1.75033C9.20973 1.75033 9.66491 1.84086 10.0895 2.01675C10.5142 2.19265 10.9 2.45046 11.225 2.77546C11.55 3.10047 11.8078 3.48631 11.9837 3.91094C12.1596 4.33558 12.2501 4.79071 12.2501 5.25033C12.2501 5.5725 11.989 5.83367 11.6668 5.83367C11.3676 5.83367 11.1211 5.60848 11.0874 5.31836L11.0835 5.25033C11.0835 4.94392 11.0231 4.6405 10.9058 4.35741C10.7886 4.07431 10.6167 3.81709 10.4 3.60042C10.1834 3.38375 9.92618 3.21188 9.64303 3.09461C9.40712 2.9969 9.15711 2.9387 8.903 2.92201L8.75012 2.917C8.42795 2.917 8.16679 2.65583 8.16679 2.33367C8.16679 2.0115 8.42795 1.75033 8.75012 1.75033Z" fill="black"/>
</g>
<defs>
<clipPath id="clip0_528_21477">
<rect width="14" height="14" fill="white"/>
</clipPath>
</defs>
</svg>
