<svg width="25" height="24" viewBox="0 0 25 24" fill="none" xmlns="http://www.w3.org/2000/svg">
<path d="M15.5 17.75C15.91 17.75 16.25 17.41 16.25 17L16.25 12.81L16.97 13.53C17.26 13.82 17.74 13.82 18.03 13.53C18.32 13.24 18.32 12.76 18.03 12.47L16.03 10.47C15.82 10.26 15.49 10.19 15.21 10.31C14.93 10.42 14.75 10.7 14.75 11L14.75 17C14.75 17.41 15.09 17.75 15.5 17.75Z" fill="#2899D5"/>
<path d="M13.5 13.75C13.69 13.75 13.88 13.68 14.03 13.53L16.03 11.53C16.32 11.24 16.32 10.76 16.03 10.47C15.74 10.18 15.26 10.18 14.97 10.47L12.97 12.47C12.68 12.76 12.68 13.24 12.97 13.53C13.12 13.68 13.31 13.75 13.5 13.75Z" fill="#2899D5"/>
<path d="M9.5 22.75L15.5 22.75C20.93 22.75 23.25 20.43 23.25 15L23.25 9C23.25 3.57 20.93 1.25 15.5 1.25L10.5 1.25C10.09 1.25 9.75 1.59 9.75 2C9.75 2.41 10.09 2.75 10.5 2.75L15.5 2.75C20.11 2.75 21.75 4.39 21.75 9L21.75 15C21.75 19.61 20.11 21.25 15.5 21.25L9.5 21.25C4.89 21.25 3.25 19.61 3.25 15L3.25 10C3.25 9.59 2.91 9.25 2.5 9.25C2.09 9.25 1.75 9.59 1.75 10L1.75 15C1.75 20.43 4.07 22.75 9.5 22.75Z" fill="#2899D5"/>
<path d="M2.5 10.75L6.5 10.75C9.92 10.75 11.25 9.41999 11.25 5.99999L11.25 1.99999C11.25 1.69999 11.07 1.41999 10.79 1.30999C10.51 1.18999 10.19 1.25999 9.97 1.46999L1.97 9.46999C1.76 9.67999 1.69 10.01 1.81 10.29C1.93 10.57 2.2 10.75 2.5 10.75ZM9.75 3.80999L9.75 5.99999C9.75 8.57999 9.08 9.24999 6.5 9.24999L4.31 9.24999L9.75 3.80999Z" fill="#2899D5"/>
</svg>
