<svg width="24" height="24" viewBox="0 0 24 24" fill="none" xmlns="http://www.w3.org/2000/svg">
<path fill-rule="evenodd" clip-rule="evenodd" d="M11.2978 2.19375C11.7505 2.02396 12.2495 2.02396 12.7022 2.19375L19.7022 4.81875C20.4829 5.11147 21 5.85772 21 6.69141V12.0541C21 15.4631 19.074 18.5795 16.0249 20.104L12.6708 21.781C12.2485 21.9922 11.7515 21.9922 11.3292 21.781L7.97508 20.104C4.92602 18.5795 3 15.4631 3 12.0541V6.69141C3 5.85772 3.51715 5.11147 4.29775 4.81875L11.2978 2.19375ZM12 4.06641L5 6.69141V12.0541C5 14.7055 6.49802 17.1294 8.8695 18.3151L12 19.8804V4.06641Z" fill="#9A2921"/>
</svg>
