<svg width="10" height="10" viewBox="0 0 10 10" fill="none" xmlns="http://www.w3.org/2000/svg">
<path fill-rule="evenodd" clip-rule="evenodd" d="M4.54997 1.19473C4.75088 0.849803 5.24922 0.849803 5.45009 1.19473L6.61468 3.1942L8.87618 3.68392C9.2663 3.7684 9.4203 4.24232 9.15434 4.53998L7.61259 6.26544L7.84568 8.56757C7.88588 8.96469 7.48276 9.25761 7.11747 9.09665L5.00005 8.16357L2.88262 9.09665C2.51734 9.25761 2.1142 8.96469 2.15441 8.56757L2.3875 6.26544L0.845767 4.53998C0.5798 4.24232 0.733788 3.7684 1.12392 3.68392L3.3854 3.1942L4.54997 1.19473ZM5.00005 2.07777L4.03619 3.73261C3.96259 3.85897 3.83927 3.94857 3.69636 3.97951L1.82466 4.38482L3.10066 5.8129C3.19809 5.9219 3.24519 6.0669 3.23046 6.21236L3.03755 8.11769L4.79001 7.34544C4.92384 7.28648 5.07626 7.28648 5.21005 7.34544L6.96255 8.11769L6.76963 6.21236C6.75488 6.0669 6.80201 5.9219 6.89943 5.8129L8.17543 4.38482L6.30372 3.97951C6.1608 3.94857 6.03751 3.85897 5.96388 3.73261L5.00005 2.07777Z" fill="#FFC600"/>
</svg>
