<svg width="12" height="12" viewBox="0 0 12 12" fill="none" xmlns="http://www.w3.org/2000/svg">
<path fill-rule="evenodd" clip-rule="evenodd" d="M3.95844 4.854C3.95844 2.95552 5.49747 1.4165 7.39593 1.4165C9.29444 1.4165 10.8334 2.95552 10.8334 4.854C10.8334 6.75247 9.29444 8.2915 7.39593 8.2915C6.61012 8.2915 5.88586 8.02782 5.30684 7.58407L4.48745 8.40348L5.14077 9.05678C5.31976 9.23576 5.31976 9.52598 5.14077 9.70496C4.96178 9.88398 4.67158 9.88398 4.49258 9.70496L3.83927 9.05165L2.86775 10.0232C2.68876 10.2022 2.39856 10.2022 2.21957 10.0232C2.04058 9.84415 2.04058 9.55398 2.21957 9.375L3.19108 8.40348L2.54804 7.76043C2.36905 7.58145 2.36905 7.29124 2.54804 7.11226C2.72703 6.93328 3.01723 6.93328 3.19623 7.11226L3.83927 7.7553L4.65962 6.93493C4.21966 6.35729 3.95844 5.63615 3.95844 4.854ZM7.39593 2.33317C6.0037 2.33317 4.87511 3.46178 4.87511 4.854C4.87511 6.24624 6.0037 7.37484 7.39593 7.37484C8.78816 7.37484 9.91676 6.24624 9.91676 4.854C9.91676 3.46178 8.78816 2.33317 7.39593 2.33317Z" fill="white"/>
</svg>
