<svg width="22" height="18" viewBox="0 0 22 18" fill="none" xmlns="http://www.w3.org/2000/svg">
<path d="M3.00006 1L19.0001 17M13.0001 11.2361C12.4693 11.7111 11.7684 12 11.0001 12C9.34321 12 8.00006 10.6569 8.00006 9C8.00006 8.23165 8.28891 7.53076 8.76395 7M18.6078 12.6077C19.1792 12.1103 19.6903 11.6099 20.1304 11.1469C21.29 9.92683 21.29 8.07317 20.1304 6.8531C18.1746 4.79533 14.8156 2 11.0001 2C10.1087 2 9.24223 2.15256 8.41276 2.41264M5.50006 3.80338C4.0415 4.73444 2.7977 5.87678 1.86977 6.8531C0.710159 8.07317 0.710159 9.92683 1.86977 11.1469C3.82555 13.2047 7.18455 16 11.0001 16C12.8681 16 14.6268 15.3299 16.1649 14.4044" stroke="#28303F" stroke-width="1.5" stroke-linecap="round"/>
</svg>
