<svg width="24" height="24" viewBox="0 0 24 24" fill="none" xmlns="http://www.w3.org/2000/svg">
<path d="M10.75 2.45031C11.45 1.86031 12.58 1.86031 13.26 2.45031L14.84 3.80031C15.14 4.05031 15.71 4.26031 16.11 4.26031H17.81C18.87 4.26031 19.74 5.13031 19.74 6.19031V7.89031C19.74 8.29031 19.95 8.85031 20.2 9.15031L21.55 10.7303C22.14 11.4303 22.14 12.5603 21.55 13.2403L20.2 14.8203C19.95 15.1203 19.74 15.6803 19.74 16.0803V17.7803C19.74 18.8403 18.87 19.7103 17.81 19.7103H16.11C15.71 19.7103 15.15 19.9203 14.85 20.1703L13.27 21.5203C12.57 22.1103 11.44 22.1103 10.76 21.5203L9.18 20.1703C8.88 19.9203 8.31 19.7103 7.92 19.7103H6.17C5.11 19.7103 4.24 18.8403 4.24 17.7803V16.0703C4.24 15.6803 4.04 15.1103 3.79 14.8203L2.44 13.2303C1.86 12.5403 1.86 11.4203 2.44 10.7303L3.79 9.14031C4.04 8.84031 4.24 8.28031 4.24 7.89031V6.20031C4.24 5.14031 5.11 4.27031 6.17 4.27031H7.9C8.3 4.27031 8.86 4.06031 9.16 3.81031L10.75 2.45031Z" stroke="#187D44" stroke-width="1.5" stroke-linecap="round" stroke-linejoin="round"/>
<path d="M12 8.12988V12.9599" stroke="#187D44" stroke-width="1.5" stroke-linecap="round" stroke-linejoin="round"/>
<path d="M11.9945 16H12.0035" stroke="#187D44" stroke-width="2" stroke-linecap="round" stroke-linejoin="round"/>
</svg>
