<svg width="24" height="24" viewBox="0 0 24 24" fill="none" xmlns="http://www.w3.org/2000/svg">
<path d="M12 2C16.9706 2 21 6.02944 21 11C21 14.0738 19.3241 16.5892 17.5584 18.3945C16.5897 19.3849 15.5597 20.1973 14.6817 20.8113L14.2564 21.1017C14.1879 21.1473 14.1208 21.1915 14.0551 21.2343L13.6789 21.474L13.3429 21.6791L12.9271 21.921C12.3479 22.2481 11.6521 22.2481 11.0729 21.921L10.6571 21.6791L10.1377 21.3584C10.0749 21.3184 10.0106 21.2771 9.94491 21.2343L9.53449 20.9607C8.61244 20.3315 7.49106 19.4674 6.44162 18.3945C4.6759 16.5892 3 14.0738 3 11C3 6.02944 7.02944 2 12 2ZM12 8C10.3431 8 9 9.34315 9 11C9 12.6569 10.3431 14 12 14C13.6569 14 15 12.6569 15 11C15 9.34315 13.6569 8 12 8Z" fill="#9A2921"/>
</svg>
