<svg xmlns="http://www.w3.org/2000/svg" width="14.504" height="17.405" viewBox="0 0 14.504 17.405">
  <g id="lock" transform="translate(-42.667)">
    <path id="Path_377" data-name="Path 377" d="M55,6.109V5.076a5.076,5.076,0,1,0-10.153,0V6.109a3.626,3.626,0,0,0-2.176,3.319v4.351A3.63,3.63,0,0,0,46.293,17.4h7.252a3.63,3.63,0,0,0,3.626-3.626V9.428A3.626,3.626,0,0,0,55,6.109Zm-4.351,6.219a.725.725,0,1,1-1.45,0v-1.45a.725.725,0,1,1,1.45,0Zm2.9-6.527H46.293V5.076a3.626,3.626,0,1,1,7.252,0Z" fill="#aeaeae"/>
  </g>
</svg>
