<svg width="14" height="14" viewBox="0 0 14 14" fill="none" xmlns="http://www.w3.org/2000/svg">
<path d="M8.92348 4.11343C8.69569 4.34124 8.69569 4.71058 8.92348 4.93839L10.4024 6.41726H5.25C4.92784 6.41726 4.66667 6.67848 4.66667 7.00059C4.66667 7.32277 4.92783 7.58393 5.25 7.58393H10.4027L8.92348 9.0632C8.69569 9.29099 8.69569 9.66036 8.92348 9.88815C9.15128 10.1159 9.52064 10.1159 9.74843 9.88815L12.2233 7.41324C12.4511 7.18545 12.4511 6.81614 12.2233 6.58829L9.74843 4.11343C9.52064 3.88563 9.15128 3.88563 8.92348 4.11343ZM1.75 11.084C1.75 11.4062 2.01117 11.6673 2.33333 11.6673C2.6555 11.6673 2.91667 11.4062 2.91667 11.084V2.91732C2.91667 2.59515 2.6555 2.33398 2.33333 2.33398C2.01117 2.33398 1.75 2.59515 1.75 2.91732V11.084Z" fill="#FF3B30"/>
</svg>
