<svg xmlns="http://www.w3.org/2000/svg" width="15.172" height="13.908" viewBox="0 0 15.172 13.908">
  <g id="envelope" transform="translate(0 -1)">
    <path id="Path_375" data-name="Path 375" d="M15.143,5.542,9.822,10.864a3.165,3.165,0,0,1-4.471,0L.029,5.542c-.009.1-.029.19-.029.29v7.586a3.165,3.165,0,0,0,3.161,3.161h8.851a3.165,3.165,0,0,0,3.161-3.161V5.832C15.172,5.732,15.152,5.642,15.143,5.542Z" transform="translate(0 -1.671)" fill="#aeaeae"/>
    <path id="Path_376" data-name="Path 376" d="M9.2,8.3l5.774-5.775A3.152,3.152,0,0,0,12.285,1H3.435A3.152,3.152,0,0,0,.744,2.524L6.518,8.3A1.9,1.9,0,0,0,9.2,8.3Z" transform="translate(-0.274)" fill="#aeaeae"/>
  </g>
</svg>
