<svg width="12" height="12" viewBox="0 0 12 12" fill="none" xmlns="http://www.w3.org/2000/svg">
<path fill-rule="evenodd" clip-rule="evenodd" d="M9.87496 4.625C9.87496 4.87813 9.66976 5.08333 9.41663 5.08333C9.16349 5.08333 8.95829 4.87813 8.95829 4.625V3.43981L7.3373 5.06079C7.77914 5.63911 8.04163 6.36181 8.04163 7.14583C8.04163 9.0443 6.50259 10.5833 4.60413 10.5833C2.70565 10.5833 1.16663 9.0443 1.16663 7.14583C1.16663 5.24737 2.70565 3.70833 4.60413 3.70833C5.3881 3.70833 6.11081 3.97078 6.68913 4.41262L8.31007 2.79167H7.12496C6.87182 2.79167 6.66663 2.58646 6.66663 2.33333C6.66663 2.0802 6.87182 1.875 7.12496 1.875H9.30204C9.61848 1.875 9.87496 2.1315 9.87496 2.44792V4.625ZM4.60413 4.625C3.21191 4.625 2.08329 5.7536 2.08329 7.14583C2.08329 8.53807 3.21191 9.66667 4.60413 9.66667C5.99636 9.66667 7.12496 8.53807 7.12496 7.14583C7.12496 5.7536 5.99636 4.625 4.60413 4.625Z" fill="#3A5ACD"/>
</svg>
