<svg width="14" height="14" viewBox="0 0 14 14" fill="none" xmlns="http://www.w3.org/2000/svg">
<path d="M11.667 1.75C12.2821 1.75 12.7859 2.22593 12.8305 2.8296L12.8337 2.91667V11.0833C12.8337 11.6984 12.3577 12.2023 11.7541 12.2468L11.667 12.25H2.33366C1.71861 12.25 1.21473 11.7741 1.17019 11.1704L1.16699 11.0833V2.91667C1.16699 2.30162 1.64292 1.79774 2.24659 1.7532L2.33366 1.75H11.667ZM5.7628 7.02934L2.46296 10.3291C2.4236 10.3685 2.38001 10.4011 2.33366 10.4268V11.0833H11.667V10.4269C11.6206 10.4011 11.5769 10.3686 11.5375 10.3291L9.88759 8.67924L9.47512 9.09172L9.59593 9.21252C9.82372 9.44032 9.82372 9.80968 9.59593 10.0375C9.36813 10.2653 8.99877 10.2653 8.77098 10.0375L5.7628 7.02934ZM11.667 2.91667H2.33366V8.80851L5.24719 5.89499C5.51297 5.62922 5.93284 5.6115 6.21918 5.84184L6.27839 5.89499L8.65017 8.26677L9.37198 7.54489C9.63778 7.27915 10.0577 7.26143 10.344 7.49174L10.4032 7.54489L11.667 8.80874V2.91667ZM9.04199 4.08333C9.52523 4.08333 9.91699 4.47508 9.91699 4.95833C9.91699 5.44158 9.52523 5.83333 9.04199 5.83333C8.55876 5.83333 8.16699 5.44158 8.16699 4.95833C8.16699 4.47508 8.55876 4.08333 9.04199 4.08333Z" fill="black"/>
</svg>
