<svg width="19" height="21" viewBox="0 0 19 21" fill="none" xmlns="http://www.w3.org/2000/svg">
<path fill-rule="evenodd" clip-rule="evenodd" d="M9.72729 11.2812C12.1228 11.2812 14.3026 11.9812 15.905 12.9678C16.7059 13.461 17.3894 14.0423 17.8833 14.6732C18.3693 15.294 18.7273 16.037 18.7273 16.8312C18.7273 17.6837 18.3162 18.356 17.7246 18.8351C17.1641 19.2892 16.4255 19.5896 15.6401 19.7995C14.0626 20.221 11.9563 20.363 9.72729 20.363C7.4983 20.363 5.39195 20.221 3.81446 19.7995C3.02911 19.5896 2.29053 19.2892 1.72995 18.8351C1.13843 18.356 0.727295 17.6837 0.727295 16.8312C0.727295 16.037 1.08534 15.294 1.57126 14.6732C2.06518 14.0423 2.74872 13.461 3.54956 12.9678C5.15196 11.9812 7.33183 11.2812 9.72729 11.2812ZM9.72729 13.2993C7.70448 13.2993 5.88435 13.8945 4.59131 14.6907C3.94443 15.089 3.45643 15.5208 3.14069 15.9243C2.81697 16.3378 2.72729 16.6501 2.72729 16.8312C2.72729 16.9539 2.76386 17.0846 2.982 17.2613C3.23106 17.463 3.66406 17.6715 4.32644 17.8485C5.64435 18.2007 7.538 18.3448 9.72729 18.3448C11.9166 18.3448 13.8102 18.2007 15.1282 17.8485C15.7905 17.6715 16.2235 17.463 16.4726 17.2613C16.6907 17.0846 16.7273 16.9539 16.7273 16.8312C16.7273 16.6501 16.6376 16.3378 16.3139 15.9243C15.9982 15.5208 15.5102 15.089 14.8633 14.6907C13.5702 13.8945 11.7501 13.2993 9.72729 13.2993ZM9.72729 0.181152C12.4887 0.181152 14.7273 2.44008 14.7273 5.22661C14.7273 8.01313 12.4887 10.2721 9.72729 10.2721C6.96587 10.2721 4.72729 8.01313 4.72729 5.22661C4.72729 2.44008 6.96587 0.181152 9.72729 0.181152ZM9.72729 2.19933C8.07039 2.19933 6.72729 3.55469 6.72729 5.22661C6.72729 6.89852 8.07039 8.25388 9.72729 8.25388C11.3842 8.25388 12.7273 6.89852 12.7273 5.22661C12.7273 3.55469 11.3842 2.19933 9.72729 2.19933Z" fill="#969696"/>
</svg>
