<svg width="14" height="14" viewBox="0 0 14 14" fill="none" xmlns="http://www.w3.org/2000/svg">
<g clip-path="url(#clip0_528_21439)">
<path fill-rule="evenodd" clip-rule="evenodd" d="M6.36995 1.67272C6.65124 1.18982 7.3489 1.18982 7.63013 1.67272L9.26054 4.47198L12.4266 5.15758C12.9728 5.27586 13.1884 5.93934 12.8161 6.35607L10.6576 8.77171L10.9839 11.9947C11.0402 12.5507 10.4759 12.9607 9.96445 12.7354L7.00007 11.4291L4.03566 12.7354C3.52427 12.9607 2.95987 12.5507 3.01617 11.9947L3.34249 8.77171L1.18407 6.35607C0.81172 5.93934 1.0273 5.27586 1.57348 5.15758L4.73956 4.47198L6.36995 1.67272ZM7.00007 2.90897L5.65066 5.22575C5.54763 5.40265 5.37498 5.52809 5.1749 5.57141L2.55452 6.13884L4.34092 8.13816C4.47732 8.29076 4.54327 8.49376 4.52265 8.6974L4.25257 11.3649L6.70601 10.2837C6.89338 10.2012 7.10676 10.2012 7.29407 10.2837L9.74757 11.3649L9.47749 8.6974C9.45684 8.49376 9.52281 8.29076 9.65919 8.13816L11.4456 6.13884L8.8252 5.57141C8.62512 5.52809 8.45251 5.40265 8.34944 5.22575L7.00007 2.90897Z" fill="black"/>
</g>
<defs>
<clipPath id="clip0_528_21439">
<rect width="14" height="14" fill="white"/>
</clipPath>
</defs>
</svg>
