<svg width="20" height="16" viewBox="0 0 20 16" fill="none" xmlns="http://www.w3.org/2000/svg">
<path d="M10 0C12.7867 0 15.2628 1.25676 17.0257 2.81276C17.9108 3.59401 18.6403 4.47094 19.1544 5.34416C19.6593 6.2015 20 7.1299 20 8C20 8.8701 19.6593 9.7985 19.1544 10.6558C18.6403 11.5291 17.9108 12.406 17.0257 13.1872C15.2628 14.7432 12.7867 16 10 16C7.21333 16 4.73725 14.7432 2.97431 13.1872C2.08915 12.406 1.35973 11.5291 0.84556 10.6558C0.34075 9.7985 0 8.8701 0 8C0 7.1299 0.34075 6.2015 0.84556 5.34416C1.35973 4.47094 2.08915 3.59401 2.97431 2.81276C4.73725 1.25676 7.21333 0 10 0ZM10 2C7.81611 2 5.79219 2.99324 4.29777 4.31224C3.55424 4.96849 2.96565 5.68531 2.56897 6.359C2.16293 7.0485 2 7.6201 2 8C2 8.3799 2.16293 8.9515 2.56897 9.641C2.96565 10.3147 3.55424 11.0315 4.29777 11.6878C5.79219 13.0068 7.81611 14 10 14C12.1839 14 14.2078 13.0068 15.7022 11.6878C16.4458 11.0315 17.0344 10.3147 17.431 9.641C17.8371 8.9515 18 8.3799 18 8C18 7.6201 17.8371 7.0485 17.431 6.359C17.0344 5.68531 16.4458 4.96849 15.7022 4.31224C14.2078 2.99324 12.1839 2 10 2ZM10 5C10.088 5 10.1751 5.00379 10.2611 5.01121C10.0949 5.30283 10 5.64033 10 6C10 7.1046 10.8954 8 12 8C12.3597 8 12.6972 7.9051 12.9888 7.7389C12.9962 7.8249 13 7.912 13 8C13 9.6569 11.6569 11 10 11C8.3431 11 7 9.6569 7 8C7 6.3431 8.3431 5 10 5Z" fill="black"/>
</svg>
