<svg width="20" height="20" viewBox="0 0 20 20" fill="none" xmlns="http://www.w3.org/2000/svg">
<g clip-path="url(#clip0_2758_53563)">
<path d="M7.5 2.5C7.96023 2.5 8.33333 2.8731 8.33333 3.33333C8.33333 3.76069 8.01163 4.11292 7.59718 4.16106L7.5 4.16667H4.16667V15.8333H15.8333V8.33333C15.8333 7.8731 16.2064 7.5 16.6667 7.5C17.094 7.5 17.4463 7.8217 17.4944 8.23615L17.5 8.33333V15.8333C17.5 16.712 16.8201 17.4318 15.9577 17.4954L15.8333 17.5H4.16667C3.28803 17.5 2.5682 16.8201 2.50457 15.9577L2.5 15.8333V4.16667C2.5 3.28803 3.1799 2.5682 4.04228 2.50457L4.16667 2.5H7.5ZM16.2607 2.5C16.7793 2.5 17.0806 2.89028 17.1565 3.21354C17.2326 3.53718 17.1361 4.02257 16.6691 4.25252L16.3241 4.42857C16.2802 4.45172 16.2346 4.47607 16.1873 4.50162L15.8846 4.66923L15.5477 4.86548L15.1816 5.09033C14.6134 5.44901 13.9645 5.90403 13.3137 6.45463C11.9353 7.6207 10.5986 9.17275 9.95725 11.0968C9.81167 11.5335 9.33975 11.7694 8.90317 11.6239C8.4665 11.4783 8.23056 11.0064 8.37608 10.5698C9.14933 8.2502 10.728 6.45892 12.2372 5.18219C12.5968 4.87795 12.9554 4.6005 13.3023 4.34973L13.5602 4.16667H11.6667C11.2064 4.16667 10.8333 3.79357 10.8333 3.33333C10.8333 2.90597 11.155 2.55374 11.5695 2.50561L11.6667 2.5H16.2607Z" fill="#969696"/>
</g>
<defs>
<clipPath id="clip0_2758_53563">
<rect width="20" height="20" fill="white"/>
</clipPath>
</defs>
</svg>
