<svg width="45" height="45" viewBox="0 0 45 45" fill="none" xmlns="http://www.w3.org/2000/svg">
<circle cx="22.5" cy="22.5" r="22" fill="black" stroke="#F3F3F3"/>
<path d="M12.382 28.168C11.598 28.168 10.8467 28.0653 10.128 27.86C9.40933 27.6453 8.83067 27.37 8.392 27.034L9.162 25.326C9.582 25.6247 10.0767 25.872 10.646 26.068C11.2247 26.2547 11.808 26.348 12.396 26.348C12.844 26.348 13.2033 26.306 13.474 26.222C13.754 26.1287 13.9593 26.0027 14.09 25.844C14.2207 25.6853 14.286 25.5033 14.286 25.298C14.286 25.0367 14.1833 24.8313 13.978 24.682C13.7727 24.5233 13.502 24.3973 13.166 24.304C12.83 24.2013 12.4567 24.108 12.046 24.024C11.6447 23.9307 11.2387 23.8187 10.828 23.688C10.4267 23.5573 10.058 23.3893 9.722 23.184C9.386 22.9787 9.11067 22.708 8.896 22.372C8.69067 22.036 8.588 21.6067 8.588 21.084C8.588 20.524 8.73733 20.0153 9.036 19.558C9.344 19.0913 9.80133 18.7227 10.408 18.452C11.024 18.172 11.794 18.032 12.718 18.032C13.334 18.032 13.9407 18.1067 14.538 18.256C15.1353 18.396 15.6627 18.6107 16.12 18.9L15.42 20.622C14.9627 20.3607 14.5053 20.1693 14.048 20.048C13.5907 19.9173 13.1427 19.852 12.704 19.852C12.2653 19.852 11.906 19.9033 11.626 20.006C11.346 20.1087 11.1453 20.244 11.024 20.412C10.9027 20.5707 10.842 20.7573 10.842 20.972C10.842 21.224 10.9447 21.4293 11.15 21.588C11.3553 21.7373 11.626 21.8587 11.962 21.952C12.298 22.0453 12.6667 22.1387 13.068 22.232C13.4787 22.3253 13.8847 22.4327 14.286 22.554C14.6967 22.6753 15.07 22.8387 15.406 23.044C15.742 23.2493 16.0127 23.52 16.218 23.856C16.4327 24.192 16.54 24.6167 16.54 25.13C16.54 25.6807 16.386 26.1847 16.078 26.642C15.77 27.0993 15.308 27.468 14.692 27.748C14.0853 28.028 13.3153 28.168 12.382 28.168ZM22.8497 28.168C22.0751 28.168 21.3564 28.042 20.6937 27.79C20.0404 27.538 19.4711 27.1833 18.9857 26.726C18.5097 26.2687 18.1364 25.732 17.8657 25.116C17.6044 24.5 17.4737 23.828 17.4737 23.1C17.4737 22.372 17.6044 21.7 17.8657 21.084C18.1364 20.468 18.5144 19.9313 18.9997 19.474C19.4851 19.0167 20.0544 18.662 20.7077 18.41C21.3611 18.158 22.0704 18.032 22.8357 18.032C23.6104 18.032 24.3197 18.158 24.9637 18.41C25.6171 18.662 26.1817 19.0167 26.6577 19.474C27.1431 19.9313 27.5211 20.468 27.7917 21.084C28.0624 21.6907 28.1977 22.3627 28.1977 23.1C28.1977 23.828 28.0624 24.5047 27.7917 25.13C27.5211 25.746 27.1431 26.2827 26.6577 26.74C26.1817 27.188 25.6171 27.538 24.9637 27.79C24.3197 28.042 23.6151 28.168 22.8497 28.168ZM22.8357 26.236C23.2744 26.236 23.6757 26.1613 24.0397 26.012C24.4131 25.8627 24.7397 25.648 25.0197 25.368C25.2997 25.088 25.5144 24.7567 25.6637 24.374C25.8224 23.9913 25.9017 23.5667 25.9017 23.1C25.9017 22.6333 25.8224 22.2087 25.6637 21.826C25.5144 21.4433 25.2997 21.112 25.0197 20.832C24.7491 20.552 24.4271 20.3373 24.0537 20.188C23.6804 20.0387 23.2744 19.964 22.8357 19.964C22.3971 19.964 21.9911 20.0387 21.6177 20.188C21.2537 20.3373 20.9317 20.552 20.6517 20.832C20.3717 21.112 20.1524 21.4433 19.9937 21.826C19.8444 22.2087 19.7697 22.6333 19.7697 23.1C19.7697 23.5573 19.8444 23.982 19.9937 24.374C20.1524 24.7567 20.3671 25.088 20.6377 25.368C20.9177 25.648 21.2444 25.8627 21.6177 26.012C21.9911 26.1613 22.3971 26.236 22.8357 26.236ZM33.1222 28.168C32.3382 28.168 31.5869 28.0653 30.8682 27.86C30.1496 27.6453 29.5709 27.37 29.1322 27.034L29.9022 25.326C30.3222 25.6247 30.8169 25.872 31.3862 26.068C31.9649 26.2547 32.5482 26.348 33.1362 26.348C33.5842 26.348 33.9436 26.306 34.2142 26.222C34.4942 26.1287 34.6996 26.0027 34.8302 25.844C34.9609 25.6853 35.0262 25.5033 35.0262 25.298C35.0262 25.0367 34.9236 24.8313 34.7182 24.682C34.5129 24.5233 34.2422 24.3973 33.9062 24.304C33.5702 24.2013 33.1969 24.108 32.7862 24.024C32.3849 23.9307 31.9789 23.8187 31.5682 23.688C31.1669 23.5573 30.7982 23.3893 30.4622 23.184C30.1262 22.9787 29.8509 22.708 29.6362 22.372C29.4309 22.036 29.3282 21.6067 29.3282 21.084C29.3282 20.524 29.4776 20.0153 29.7762 19.558C30.0842 19.0913 30.5416 18.7227 31.1482 18.452C31.7642 18.172 32.5342 18.032 33.4582 18.032C34.0742 18.032 34.6809 18.1067 35.2782 18.256C35.8756 18.396 36.4029 18.6107 36.8602 18.9L36.1602 20.622C35.7029 20.3607 35.2456 20.1693 34.7882 20.048C34.3309 19.9173 33.8829 19.852 33.4442 19.852C33.0056 19.852 32.6462 19.9033 32.3662 20.006C32.0862 20.1087 31.8856 20.244 31.7642 20.412C31.6429 20.5707 31.5822 20.7573 31.5822 20.972C31.5822 21.224 31.6849 21.4293 31.8902 21.588C32.0956 21.7373 32.3662 21.8587 32.7022 21.952C33.0382 22.0453 33.4069 22.1387 33.8082 22.232C34.2189 22.3253 34.6249 22.4327 35.0262 22.554C35.4369 22.6753 35.8102 22.8387 36.1462 23.044C36.4822 23.2493 36.7529 23.52 36.9582 23.856C37.1729 24.192 37.2802 24.6167 37.2802 25.13C37.2802 25.6807 37.1262 26.1847 36.8182 26.642C36.5102 27.0993 36.0482 27.468 35.4322 27.748C34.8256 28.028 34.0556 28.168 33.1222 28.168Z" fill="white"/>
</svg>
