<svg width="20" height="20" viewBox="0 0 20 20" fill="none" xmlns="http://www.w3.org/2000/svg">
<path d="M10.0003 1.66797C14.6027 1.66797 18.3337 5.39893 18.3337 10.0013C18.3337 14.6036 14.6027 18.3346 10.0003 18.3346C5.39795 18.3346 1.66699 14.6036 1.66699 10.0013C1.66699 5.39893 5.39795 1.66797 10.0003 1.66797ZM10.0003 3.33464C6.31843 3.33464 3.33366 6.3194 3.33366 10.0013C3.33366 13.6832 6.31843 16.668 10.0003 16.668C13.6822 16.668 16.667 13.6832 16.667 10.0013C16.667 6.3194 13.6822 3.33464 10.0003 3.33464ZM10.0003 5.0013C10.4277 5.0013 10.7799 5.32301 10.8281 5.73745L10.8337 5.83464V9.65614L13.0896 11.9121C13.415 12.2375 13.415 12.7651 13.0896 13.0906C12.7892 13.3909 12.3165 13.414 11.9896 13.1599L11.9111 13.0906L9.41108 10.5906C9.28087 10.4603 9.19817 10.2914 9.17422 10.1108L9.16699 10.0013V5.83464C9.16699 5.3744 9.54008 5.0013 10.0003 5.0013Z" fill="white"/>
</svg>
