<svg width="20" height="20" viewBox="0 0 20 20" fill="none" xmlns="http://www.w3.org/2000/svg">
<path d="M2.49995 5.60833C2.51661 5.60833 2.54161 5.60833 2.56661 5.60833C6.97495 5.16667 11.3749 5 15.7333 5.44167L17.4333 5.60833C17.7833 5.64167 18.0916 5.39167 18.1249 5.04167C18.1583 4.69167 17.9083 4.39167 17.5666 4.35833L15.8666 4.19167C11.4333 3.74167 6.94161 3.91667 2.44161 4.35833C2.09995 4.39167 1.84995 4.7 1.88328 5.04167C1.90828 5.36667 2.18328 5.60833 2.49995 5.60833Z" fill="#E33554"/>
<path d="M12.9166 4.76669C12.95 4.76669 12.9833 4.76669 13.025 4.75835C13.3583 4.70002 13.5916 4.37502 13.5333 4.04169L13.35 2.95002C13.2166 2.15002 13.0333 1.04169 11.0916 1.04169L8.90828 1.04169C6.95828 1.04169 6.77495 2.19169 6.64995 2.95835L6.46662 4.04169C6.40828 4.38335 6.64162 4.70835 6.97495 4.75835C7.31662 4.81669 7.64162 4.58335 7.69162 4.25002L7.87495 3.16669C7.99162 2.44169 8.01662 2.30002 8.89995 2.30002L11.0833 2.30002C11.9666 2.30002 11.9833 2.41669 12.1083 3.15835L12.3 4.24169C12.35 4.55002 12.6166 4.76669 12.9166 4.76669Z" fill="#E33554"/>
<path d="M7.325 18.9583L12.675 18.9583C15.5833 18.9583 15.7 17.35 15.7917 16.05L16.3333 7.65833C16.3583 7.31667 16.0917 7.01667 15.75 6.99167C15.4 6.975 15.1083 7.23334 15.0833 7.575L14.5417 15.9667C14.45 17.2333 14.4167 17.7083 12.675 17.7083L7.325 17.7083C5.575 17.7083 5.54167 17.2333 5.45834 15.9667L4.91667 7.575C4.89167 7.23333 4.59167 6.975 4.25 6.99167C3.90834 7.01667 3.64167 7.30833 3.66667 7.65833L4.20834 16.05C4.3 17.35 4.41667 18.9583 7.325 18.9583Z" fill="#E33554"/>
<path d="M8.61672 14.375L11.3917 14.375C11.7334 14.375 12.0167 14.0917 12.0167 13.75C12.0167 13.4083 11.7334 13.125 11.3917 13.125L8.61672 13.125C8.27506 13.125 7.99172 13.4083 7.99172 13.75C7.99172 14.0917 8.27506 14.375 8.61672 14.375Z" fill="#E33554"/>
<path d="M7.91671 11.0417L12.0834 11.0417C12.425 11.0417 12.7084 10.7584 12.7084 10.4167C12.7084 10.075 12.425 9.79169 12.0834 9.79169L7.91671 9.79169C7.57504 9.79169 7.29171 10.075 7.29171 10.4167C7.29171 10.7584 7.57504 11.0417 7.91671 11.0417Z" fill="#E33554"/>
</svg>
