<svg width="14" height="14" viewBox="0 0 14 14" fill="none" xmlns="http://www.w3.org/2000/svg">
<g clip-path="url(#clip0_690_18121)">
<path fill-rule="evenodd" clip-rule="evenodd" d="M9.15238 4.00209C9.2939 3.90292 9.42602 3.7903 9.53948 3.66346C9.74505 3.43361 9.91667 3.12397 9.91667 2.74984C9.91667 2.36122 9.73169 2.05671 9.49486 1.84357C9.26969 1.64093 8.98625 1.5073 8.71582 1.41594C8.17244 1.23238 7.52045 1.1665 7 1.1665C6.47955 1.1665 5.82755 1.23238 5.2842 1.41594C5.01376 1.5073 4.7303 1.64093 4.50512 1.84357C4.2683 2.05671 4.08333 2.36122 4.08333 2.74984C4.08333 3.12397 4.25496 3.43361 4.46054 3.66346C4.57398 3.7903 4.7061 3.90292 4.84763 4.00209C3.1062 4.83198 1.75 6.61204 1.75 8.74984C1.75 10.2408 2.3449 11.3084 3.36363 11.9728C4.34037 12.6098 5.64066 12.8332 7 12.8332C8.35934 12.8332 9.65965 12.6098 10.6364 11.9728C11.6551 11.3084 12.25 10.2408 12.25 8.74984C12.25 6.61204 10.8938 4.83198 9.15238 4.00209ZM5.28555 2.71079C5.26185 2.73211 5.25271 2.74594 5.25001 2.7506C5.25026 2.75686 5.25464 2.80129 5.33013 2.8857C5.41193 2.97715 5.54854 3.08102 5.7392 3.17979C6.12412 3.37919 6.61599 3.49984 7 3.49984C7.38401 3.49984 7.87587 3.37919 8.26082 3.17979C8.45145 3.08102 8.58807 2.97715 8.66985 2.8857C8.74533 2.80129 8.74971 2.75686 8.75 2.7506C8.74732 2.74594 8.73816 2.73211 8.71448 2.71079C8.65317 2.65561 8.53452 2.58613 8.34242 2.52124C7.96069 2.39229 7.44607 2.33317 7 2.33317C6.55393 2.33317 6.03931 2.39229 5.65759 2.52124C5.46551 2.58613 5.34685 2.65561 5.28555 2.71079Z" fill="black"/>
</g>
<defs>
<clipPath id="clip0_690_18121">
<rect width="14" height="14" fill="white"/>
</clipPath>
</defs>
</svg>
