<svg xmlns="http://www.w3.org/2000/svg" width="25.608" height="28.105" viewBox="0 0 25.608 28.105">
  <path id="bell" d="M25.342,15.427,23.2,7.708a10.526,10.526,0,0,0-20.415.535L1.12,15.713a5.646,5.646,0,0,0,5.512,6.871H7.89a5.646,5.646,0,0,0,11.066,0H19.9a5.646,5.646,0,0,0,5.441-7.157ZM13.423,24.843a3.388,3.388,0,0,1-3.18-2.258H16.6a3.388,3.388,0,0,1-3.18,2.258ZM22.6,18.988a3.362,3.362,0,0,1-2.7,1.338H6.632A3.388,3.388,0,0,1,3.326,16.2l1.66-7.471a8.267,8.267,0,0,1,16.035-.42l2.146,7.719a3.362,3.362,0,0,1-.567,2.956Z" transform="translate(-0.468 0.498)" fill="#b5b5b5" stroke="rgba(0,0,0,0)" stroke-miterlimit="10" stroke-width="1"/>
</svg>
