<svg xmlns="http://www.w3.org/2000/svg" width="19.867" height="19.838" viewBox="0 0 19.867 19.838">
    <path id="magnifying-glass"
          d="M1.8,17.006,5.16,13.651l2.581-1.067A7.294,7.294,0,1,1,9.5,14.353L8.438,16.927,5.082,20.283A2.318,2.318,0,1,1,1.8,17.006Zm17.863-8.6a5.96,5.96,0,1,0-5.96,5.96A5.967,5.967,0,0,0,19.667,8.409ZM2.741,19.347a.994.994,0,0,0,1.405,0l3.169-3.169L8.3,13.784l-2.394.989L2.741,17.942a.994.994,0,0,0,0,1.4Z"
          transform="translate(-1.125 -1.125)" fill="#a4acab"/>
</svg>
